<?xml version="1.0" encoding="UTF-8" standalone="no"?>
<svg
   width="918"
   height="551.23132"
   viewBox="0 0 918 551.23132"
   fill="none"
   version="1.1"
   id="svg6"
   sodipodi:docname="Tailwind_CSS_Logo.svg"
   xml:space="preserve"
   inkscape:version="1.2.2 (732a01da63, 2022-12-09)"
   inkscape:export-filename="icon.svg"
   inkscape:export-xdpi="96"
   inkscape:export-ydpi="96"
   xmlns:inkscape="http://www.inkscape.org/namespaces/inkscape"
   xmlns:sodipodi="http://sodipodi.sourceforge.net/DTD/sodipodi-0.dtd"
   xmlns="http://www.w3.org/2000/svg"
   xmlns:svg="http://www.w3.org/2000/svg"><defs
     id="defs10" /><sodipodi:namedview
     id="namedview8"
     pagecolor="#ffffff"
     bordercolor="#000000"
     borderopacity="0.25"
     inkscape:showpageshadow="2"
     inkscape:pageopacity="0.0"
     inkscape:pagecheckerboard="0"
     inkscape:deskcolor="#d1d1d1"
     showgrid="false"
     inkscape:zoom="0.4145"
     inkscape:cx="-276.23643"
     inkscape:cy="581.4234"
     inkscape:window-width="2560"
     inkscape:window-height="1009"
     inkscape:window-x="-8"
     inkscape:window-y="-8"
     inkscape:window-maximized="1"
     inkscape:current-layer="svg6" /><path
     d="M 449,0.18086951 C 287.5,5.3138695 239.5,120.68087 228.5,183.18087 c 14.333,-23.167 59.5,-73.999 126,-73.999 77.5,0 136.5,86.5 172.5,113.5 43.737,32.803 131.623,76.115 247,41 92,-28 134.667,-125.668 144,-172.001 -44.5,60.5 -112,96.839 -195.5,54 C 665,116.18087 622,-5.3181305 449,0.18086951 Z"
     fill="#07b6d5"
     id="path2"
     inkscape:export-filename=".\icon..svg"
     inkscape:export-xdpi="96"
     inkscape:export-ydpi="96" /><path
     d="m 220.5,274.68087 c -161.5,5.133 -209.5,120.5 -220.5,183 14.3333,-23.167 59.5,-73.999 126,-73.999 77.5,0 136.5,86.5 172.5,113.5 43.737,32.803 131.623,76.115 247,41 92,-28 134.667,-125.668 144,-172.001 -44.5,60.5 -112,96.839 -195.5,54 -57.5,-29.5 -100.5,-150.999 -273.5,-145.5 z"
     fill="#07b6d5"
     id="path4" /><path
     d="m 428.29391,110.36183 a 166.89172,166.89172 0 0 1 68.34374,-0.0334 66.706569,66.706569 0 0 0 32.65999,47.81223 66.706569,66.706569 0 0 0 57.75222,4.36023 166.89172,166.89172 0 0 1 34.13011,59.22234 66.706569,66.706569 0 0 0 -25.05882,52.18916 66.656452,66.656452 0 0 0 25.09223,52.18916 167.77713,167.77713 0 0 1 -34.18023,59.18892 66.706569,66.706569 0 0 0 -57.73551,4.36024 66.706569,66.706569 0 0 0 -32.64329,47.77881 166.89172,166.89172 0 0 1 -68.34374,0.0668 66.706569,66.706569 0 0 0 -32.65999,-47.86235 66.706569,66.706569 0 0 0 -57.75222,-4.34352 166.89172,166.89172 0 0 1 -34.13011,-59.23905 66.706569,66.706569 0 0 0 25.05882,-52.15574 66.706569,66.706569 0 0 0 -25.09223,-52.18917 167.77713,167.77713 0 0 1 34.18022,-59.18892 66.706569,66.706569 0 0 0 57.73552,-4.36023 66.706569,66.706569 0 0 0 32.64329,-47.77882 z M 462.47413,324.03 a 50.117633,50.117633 0 1 0 0,-100.23526 50.117633,50.117633 0 0 0 0,100.23526 z"
     data-v-6d84b5de=""
     id="path5780"
     style="color:#34495e;opacity:1;fill:#058196;fill-opacity:1;stroke:none;stroke-width:3.541;stroke-dasharray:none;stroke-opacity:1" /></svg>
